<?xml version="1.0" encoding="UTF-8"?>
<svg id="Layer_1" data-name="Layer 1" xmlns="http://www.w3.org/2000/svg" xmlns:xlink="http://www.w3.org/1999/xlink" viewBox="0 0 277.92 225.7">
  <defs>
    <style>
      .cls-1 {
        fill: url(#linear-gradient);
      }
    </style>
    <linearGradient id="linear-gradient" x1="171.07" y1="220.35" x2="171.07" y2="0" gradientUnits="userSpaceOnUse">
      <stop offset="0" stop-color="#2e3191"/>
      <stop offset=".99" stop-color="#00adee"/>
    </linearGradient>
  </defs>
  <path class="cls-1" d="M125.67,14.48c4.47-1.54,8.62-3.74,13.16-5,5.3-1.47,10.56-3.11,15.92-4.38,4.12-.98,8.27-1.8,12.43-2.57,6.53-1.21,13.13-1.85,19.76-2.27,5.51-.35,11.02-.33,16.54,0,6,.36,11.93,1.13,17.81,2.41,6.66,1.45,13.11,3.48,19.31,6.34,9.3,4.27,17.34,10.21,23.85,18.08,3,3.62,5.4,7.7,7.45,11.96,6.65,13.85,7.28,28.31,4.4,43.11-1.08,5.57-2.69,11.01-4.66,16.34-.51,1.38-.58,2.77-.47,4.24,.33,4.33-.13,8.64-.92,12.88-.57,3.05-1.32,6.08-2.24,9.06-1.71,5.55-4.18,10.71-7.51,15.43-2.11,2.99-4.01,6.14-6.6,8.8-6.65,6.83-14.2,12.3-22.99,16.09-3.6,1.55-7.3,2.78-11.03,3.95-.15,.05-.32,.16-.45,.14-3.16-.55-4.98,1.74-6.96,3.45-3.1,2.68-6.67,4.67-9.92,7.13-4.08,3.09-8.45,5.75-12.81,8.41-4.48,2.73-9.12,5.21-13.84,7.54-4.59,2.26-9.13,4.6-13.79,6.71-8.53,3.86-17.39,6.85-26.27,9.75-6.24,2.04-12.62,3.43-19.05,4.65-2.75,.52-5.44,1.26-8.23,1.64-9.68,1.31-19.37,2.12-29.15,1.98-4.08-.06-8.15-.18-12.2-.64-.93-.11-1.92,.02-2.97-.7,1.16-.5,2.23-.46,3.28-.47,7.53-.05,15.01-.87,22.43-2,6.87-1.05,13.65-2.54,20.39-4.32,5.72-1.51,11.31-3.38,16.93-5.16,1.22-.39,2.39-.91,3.58-1.37,7.6-2.95,15.1-6.16,22.38-9.79,11.23-5.6,22.05-11.93,32.22-19.33,.97-.7,2-1.32,2.95-2.05,.43-.33,.85-.81,.54-1.44-.26-.52-.79-.43-1.26-.43-9.43,.02-18.87,.05-28.3,.07-5.28,.01-10.55,0-15.83,.01-1.67,0-2.14-.53-1.72-2.25,.71-2.94,1.53-5.86,2.3-8.79,1.27-4.79,2.49-9.58,3.81-14.36,1.07-3.85,2.18-7.68,3.2-11.55,2.11-8.04,4.37-16.03,6.57-24.04,1.14-4.16,2.38-8.3,3.42-12.48,1.98-7.98,4.59-15.78,6.49-23.78,1.58-6.67,3.7-13.22,5.59-19.82,.44-1.54,1.18-2.12,2.8-2.05,10.63,.48,21.27,.28,31.9,.35,6.24,.04,12.45,.37,18.67,.84,2.74,.21,5.32,1.08,7.98,1.6,4.26,.82,8.31,2.41,12.19,4.26,2.79,1.32,5.48,2.97,7.79,5.1,.61,.57,1.22,1.15,2.09,.72,.86-.42,.85-1.3,.8-2.1-.43-6.84-1.97-13.42-4.84-19.65-1.27-2.75-2.51-5.55-4.14-8.09-1.9-2.95-4.22-5.63-6.72-8.11-3.52-3.49-7.3-6.7-11.49-9.37-5.97-3.81-12.39-6.68-19.19-8.57-7.55-2.1-15.2-3.75-23.08-4.05-2.96-.11-5.9-.37-8.86-.41-8.59-.13-17.05,1-25.52,2.29-8.32,1.27-16.33,3.79-24.53,5.56-1.12,.24-2.06,1.32-3.37,.53Zm64.78,129.08c3.32,.34,6.72-.28,10.15-.55,6.52-.52,12.72-2.15,18.51-5.22,6.14-3.25,10.94-7.9,14.36-13.98,.71-1.27,1.14-2.63,1.74-3.93,2.42-5.27,3.27-10.77,2.86-16.55-.75-10.4-7.38-16.75-17.16-19.69-6.63-1.99-13.45-1.61-20.23-1.53-1.8,.02-2.23,.44-2.68,2.14-1.71,6.39-3.4,12.79-5.11,19.18-2.41,9.03-4.76,18.07-7.26,27.07-.98,3.53-1.49,7.18-2.84,10.63-.64,1.62,.01,2.27,1.81,2.48,1.92,.22,3.83,.07,5.87-.04Z"/>
  <path d="M210.48,21.57c-1.47,1.17-2.77,.8-3.98,.67-2.15-.22-4.26-.64-6.42-.81-5.93-.46-11.82,.12-17.72,.6-6.71,.55-13.32,1.78-19.87,3.24-9.91,2.21-19.56,5.29-29.01,9.05-7.66,3.05-15.1,6.55-22.42,10.29-4.98,2.55-9.73,5.51-14.47,8.48-6.17,3.86-12.14,8.01-17.9,12.46-9.57,7.4-18.4,15.62-26.54,24.58-.75,.83-1.46,1.67-2.1,2.95,1.38-.28,2.26-.99,3.16-1.65,5.74-4.22,11.88-7.82,18.05-11.35,1.39-.8,1.96-.47,2.15,1.28,.44,4.05,.8,8.12,1.19,12.18,.91,9.39,1.83,18.78,2.73,28.16,.1,1.03,.1,2.08,.18,3.11,.03,.39,.17,.8,.66,.85,.36,.04,.59-.22,.76-.49,.85-1.35,1.69-2.72,2.54-4.07,5.06-7.96,10.15-15.89,15.19-23.87,8.66-13.72,17.28-27.46,25.91-41.18,.17-.27,.41-.5,.55-.79,.78-1.67,2.05-2.07,3.87-2.05,10.48,.08,20.96,0,31.44,.02,.9,0,2.11-.49,2.62,.57,.48,.98-.49,1.76-1,2.53-5.21,7.86-10.61,15.59-15.72,23.52-4.02,6.25-8.2,12.39-12.32,18.58-4.43,6.65-8.87,13.29-13.29,19.95-8.5,12.78-16.99,25.57-25.49,38.34-3.23,4.86-6.56,9.65-9.7,14.56-1.28,2-2.65,2.98-5.19,2.92-8.48-.18-16.96-.07-25.44-.08-2.56,0-2.92-.45-3.24-3.05-.69-5.63-1.5-11.25-2.23-16.87-.85-6.58-1.66-13.16-2.52-19.74-1.06-8.16-2.16-16.32-3.23-24.48-.15-1.11-.21-2.23-.32-3.34-.05-.54,.02-1.21-.68-1.37-.55-.13-.85,.38-1.09,.78-2.16,3.54-4.57,6.94-6.49,10.64-2.32,4.47-4.51,8.99-6.26,13.72-3.14,8.48-5.15,17.18-4.61,26.26,.6,9.96,3.91,18.92,11.08,26.11,4.33,4.34,9.43,7.61,15.07,10.04,9.22,3.97,18.92,5.56,28.88,6.25,7.72,.53,15.35-.13,22.96-.93,6.18-.65,12.31-1.87,18.38-3.34,6.92-1.67,13.71-3.73,20.37-6.23,4.09-1.54,8.22-3.01,12.17-4.93,1.22-.59,2.65-.61,3.77-1.48,.32-.25,.84-.27,1.06,.12,.26,.45-.17,.7-.52,.89-2.78,1.53-5.52,3.16-8.37,4.56-7.16,3.52-14.53,6.61-22.03,9.3-6.45,2.32-13,4.38-19.66,6.08-6.52,1.66-13.09,2.99-19.74,3.87-9.53,1.27-19.11,1.92-28.72,1.09-8.37-.73-16.65-2.15-24.56-5.1-8.5-3.17-16.09-7.8-22.35-14.45-2.46-2.62-3.76-5.91-5.16-9.13C-.23,167.56-.83,155.19,.81,142.66c1.08-8.27,3.48-16.15,7.37-23.65,7.33-14.13,17.02-26.44,28.07-37.76,1.27-1.3,1.62-2.52,1.36-4.27-1.02-6.88-1.92-13.77-2.85-20.66-.07-.55-.09-1.12-.07-1.67,.04-.83,.48-1.33,1.34-1.39,.4-.02,.8-.03,1.2-.03,10.24,.02,20.48,.02,30.72,.06,1.5,0,2.8-.36,4.06-1.18,6.11-3.94,12.34-7.67,18.78-11.07,7.49-3.96,15.15-7.51,23-10.69,6-2.43,12.12-4.52,18.31-6.36,6.73-2,13.58-3.58,20.5-4.87,5.28-.98,10.6-1.61,15.92-2.08,7.88-.69,15.81-.63,23.71,.36,3.97,.5,7.88,1.31,11.83,1.89,2.18,.32,4.17,1.28,6.43,2.28Z"/>
</svg>